<svg width="39" height="40" viewBox="0 0 39 40" fill="none" xmlns="http://www.w3.org/2000/svg">
<path d="M32.8879 1.99552H30.1142C28.8554 1.99701 27.8354 3.01704 27.8339 4.27578V6.70935L21.4745 0.662008C20.5589 -0.220751 19.109 -0.220751 18.1934 0.662008L1.68497 16.3605C0.936528 17.0716 0.700251 18.1687 1.08959 19.1248C1.43995 20.0544 2.33114 20.6683 3.32454 20.6643H3.83124V37.6663C3.84374 38.9656 4.90558 40.0095 6.20487 39.9999H33.4614C34.7607 40.0095 35.8225 38.9656 35.835 37.6663V20.6643H36.3417C37.3351 20.6683 38.2263 20.0544 38.5766 19.1248C38.966 18.1686 38.7297 17.0716 37.9813 16.3605L35.1683 13.6849V4.27578C35.1666 3.01704 34.1466 1.99701 32.8879 1.99552ZM29.1674 4.27578C29.1681 3.75322 29.5916 3.32974 30.1142 3.32903H32.8879C33.4104 3.32974 33.8339 3.75322 33.8346 4.27578V12.4167L29.1674 7.97754V4.27578ZM37.3378 18.6308C37.1845 19.0494 36.7873 19.3285 36.3416 19.3309H35.1681C34.7999 19.3309 34.5014 19.6294 34.5014 19.9976V37.6663C34.4894 38.2292 34.0243 38.6765 33.4613 38.6664H6.20479C5.64176 38.6765 5.1767 38.2292 5.16467 37.6663V19.9976C5.16467 19.6294 4.86612 19.3309 4.49795 19.3309H3.32446C2.87878 19.3285 2.48155 19.0494 2.32833 18.6308C2.13979 18.1811 2.24941 17.6617 2.60367 17.3267L19.1142 1.62282C19.5131 1.22871 20.1548 1.22871 20.5537 1.62282L37.063 17.3246C37.4178 17.6603 37.5272 18.1807 37.3378 18.6308Z" fill="#025595"/>
</svg>
