<svg width="25" height="25" viewBox="0 0 25 25" fill="none" xmlns="http://www.w3.org/2000/svg">
<path d="M0.832043 10.998C0.829308 14.68 2.85181 18.0652 6.09538 19.8076C9.33896 21.5501 13.278 21.3674 16.3465 19.3324L20.7563 23.7429C21.2607 24.2471 21.9958 24.444 22.6847 24.2593C23.3736 24.0746 23.9117 23.5364 24.0962 22.8475C24.2808 22.1585 24.0837 21.4235 23.5793 20.9193L19.1674 16.5114C21.5346 12.9429 21.3671 8.26319 18.7508 4.87303C16.1346 1.48288 11.6503 0.134439 7.59821 1.51952C3.54611 2.9046 0.825636 6.71575 0.832043 10.998ZM22.6399 21.8659C22.7661 21.9884 22.8372 22.1568 22.8372 22.3326C22.8372 22.5084 22.7661 22.6768 22.6399 22.7993C22.3802 23.0565 21.9617 23.0565 21.7019 22.7993L17.4134 18.5109C17.7462 18.2194 18.0593 17.9063 18.3509 17.5734L22.6399 21.8659ZM19.5009 10.998C19.5009 15.7851 15.6202 19.6657 10.8333 19.6657C6.04631 19.6657 2.16556 15.7851 2.16556 10.998C2.16556 6.211 6.04624 2.3304 10.8332 2.3304C15.618 2.33586 19.4954 6.21327 19.5009 10.998Z" fill="#025595"/>
</svg>
