<svg width="20" height="25" viewBox="0 0 20 25" fill="none" xmlns="http://www.w3.org/2000/svg">
<path d="M8.5888 21.3673L8.58886 21.3673C9.80657 22.5869 11.4259 23.2578 13.1501 23.2578C16.0432 23.2578 18.3975 20.9045 18.3975 18.0114V9.74869C18.3975 9.26826 18.0067 8.87662 17.5254 8.87662C17.0441 8.87662 16.6534 9.26822 16.6534 9.74869V12.1789C16.6534 12.5025 16.3908 12.765 16.0673 12.765C15.7438 12.765 15.4812 12.5025 15.4812 12.1789V8.77662C15.4812 8.2962 15.0905 7.90455 14.6092 7.90455C14.1279 7.90455 13.7371 8.29615 13.7371 8.77662V12.1789C13.7371 12.5025 13.4746 12.765 13.1511 12.765C12.8275 12.765 12.565 12.5025 12.565 12.1789V7.80455C12.565 7.32413 12.1742 6.93248 11.6929 6.93248C11.2116 6.93248 10.8209 7.32408 10.8209 7.80455V12.1789C10.8209 12.5025 10.5583 12.765 10.2348 12.765C9.91128 12.765 9.64875 12.5025 9.64875 12.1789V2.94412C9.64875 2.46369 9.25798 2.07205 8.77668 2.07205C8.29538 2.07205 7.90461 2.46365 7.90461 2.94412V15.0952C7.90461 15.2981 7.79912 15.4867 7.62686 15.5934C7.45507 15.7003 7.23851 15.7093 7.0573 15.6193L7.05709 15.6191L3.68114 13.9317L8.5888 21.3673ZM8.5888 21.3673L2.30237 15.0818L2.30217 15.0816M8.5888 21.3673L2.30217 15.0816M2.30217 15.0816C2.15417 14.9344 2.07211 14.7375 2.07211 14.5216M2.30217 15.0816L2.07211 14.5216M2.07211 14.5216C2.07211 14.0889 2.42395 13.7371 2.85669 13.7371M2.07211 14.5216L2.85669 13.7371M2.85669 13.7371C3.14143 13.7371 3.42555 13.8043 3.68103 13.9316L2.85669 13.7371ZM4.20499 12.8827L4.16026 12.9721L4.20499 12.8827C3.78858 12.6745 3.3222 12.5649 2.85669 12.5649C1.77667 12.5649 0.9 13.443 0.9 14.5275C0.9 15.0508 1.10401 15.5418 1.47368 15.9115L7.75912 22.1969C7.75913 22.1969 7.75914 22.1969 7.75915 22.1969C9.19814 23.6369 11.1143 24.4299 13.1511 24.4299C16.6902 24.4299 19.5696 21.5506 19.5696 18.0114V9.74869C19.5696 8.62124 18.6529 7.70451 17.5254 7.70451C17.1497 7.70451 16.7968 7.80675 16.494 7.98408C16.1837 7.24996 15.4558 6.73244 14.6092 6.73244C14.2335 6.73244 13.8806 6.83469 13.5777 7.01201C13.2675 6.27789 12.5396 5.76037 11.6929 5.76037C11.3814 5.76037 11.0854 5.83067 10.8209 5.95624V2.94412C10.8209 1.81667 9.90413 0.899939 8.77668 0.899939C7.64923 0.899939 6.7325 1.81667 6.7325 2.94412V14.1469L4.20499 12.8827Z" fill="white" stroke="white" stroke-width="0.2"/>
</svg>
