<svg width="24" height="19" viewBox="0 0 24 19" fill="none" xmlns="http://www.w3.org/2000/svg">
<path d="M5.41047 8.03995C4.64374 7.92727 3.87172 7.85401 3.09747 7.82045C2.75797 7.79945 2.31047 7.97645 2.23297 8.83245C2.21851 9.04771 2.23929 9.26389 2.29447 9.47245C2.3459 9.69024 2.46184 9.88745 2.62714 10.0383C2.79243 10.1891 2.9994 10.2866 3.22097 10.318L6.53047 10.784C6.547 10.7867 6.56372 10.788 6.58047 10.788C6.64512 10.788 6.70868 10.7714 6.76499 10.7396C6.8213 10.7079 6.86845 10.6621 6.90185 10.6067C6.93526 10.5514 6.9538 10.4884 6.95566 10.4237C6.95752 10.3591 6.94264 10.2951 6.91247 10.238C5.82397 8.16745 5.54497 8.08145 5.41047 8.03995ZM3.32547 9.57545C3.25277 9.56433 3.18508 9.53166 3.13115 9.48165C3.07722 9.43165 3.03954 9.36661 3.02297 9.29495C2.98809 9.16651 2.97358 9.03339 2.97997 8.90045C2.98116 8.78663 3.00691 8.6744 3.05547 8.57145H3.06597C3.92097 8.62495 4.88247 8.70245 5.14297 8.74845C5.42449 9.12514 5.67625 9.52318 5.89597 9.93895L3.32547 9.57545Z" fill="#12181D"/>
<path d="M20.7803 7.82039C20.006 7.85394 19.234 7.9272 18.4673 8.03988C18.3328 8.08138 18.0533 8.16738 16.9633 10.2399C16.9331 10.2971 16.9182 10.3611 16.9201 10.4257C16.9219 10.4903 16.9405 10.5533 16.9739 10.6087C17.0073 10.664 17.0544 10.7098 17.1107 10.7415C17.1671 10.7733 17.2306 10.7899 17.2953 10.7899C17.312 10.79 17.3287 10.7886 17.3453 10.7859L20.6548 10.3199C20.8763 10.2885 21.0833 10.1911 21.2486 10.0402C21.4139 9.88939 21.5298 9.69218 21.5813 9.47438C21.6363 9.26579 21.6571 9.04964 21.6428 8.83439C21.5668 7.97639 21.1168 7.79989 20.7803 7.82039ZM20.8548 9.29488C20.8382 9.36654 20.8005 9.43158 20.7466 9.48158C20.6927 9.53159 20.625 9.56427 20.5523 9.57538L17.9818 9.93738C18.2016 9.5218 18.4532 9.12379 18.7343 8.74688C18.9993 8.70038 19.9618 8.62288 20.8163 8.56988C20.8708 8.67145 20.8988 8.78512 20.8978 8.90039C20.9042 9.03333 20.8897 9.16645 20.8548 9.29488Z" fill="#12181D"/>
<path d="M17.131 8.38896C17.0932 8.335 17.0419 8.29191 16.9822 8.264C16.9226 8.2361 16.8566 8.22436 16.791 8.22996C16.7565 8.23296 13.312 8.52996 11.941 8.52996C10.57 8.52996 7.12497 8.22996 7.09097 8.22996C7.02531 8.22418 6.95928 8.23582 6.89956 8.26373C6.83985 8.29163 6.78855 8.3348 6.75086 8.38887C6.71317 8.44295 6.69042 8.50602 6.68491 8.5717C6.67939 8.63739 6.69132 8.70336 6.71947 8.76296L7.70697 10.8585C7.73585 10.9194 7.78054 10.9714 7.83639 11.0091C7.89224 11.0469 7.95719 11.0689 8.02447 11.073L11.939 11.297L15.8595 11.073C15.9268 11.069 15.9918 11.047 16.0476 11.0093C16.1035 10.9715 16.1482 10.9194 16.177 10.8585L17.1645 8.76296C17.1924 8.70321 17.204 8.63714 17.1981 8.57145C17.1922 8.50575 17.1691 8.44279 17.131 8.38896ZM15.592 10.339L11.94 10.55L8.28997 10.339L7.67447 9.03296C8.75397 9.12096 10.894 9.28296 11.9415 9.28296C12.989 9.28296 15.1295 9.12096 16.2095 9.03296L15.592 10.339Z" fill="#12181D"/>
<path d="M22.8439 15.6853C22.7444 15.6853 22.649 15.7248 22.5787 15.7951C22.5084 15.8655 22.4689 15.9609 22.4689 16.0603V17.6173C22.4689 17.6525 22.4549 17.6862 22.4301 17.711C22.4052 17.7358 22.3715 17.7498 22.3364 17.7498H20.3884C20.3532 17.7498 20.3195 17.7358 20.2947 17.711C20.2698 17.6862 20.2559 17.6525 20.2559 17.6173V16.9753C20.2559 16.8759 20.2164 16.7805 20.146 16.7101C20.0757 16.6398 19.9803 16.6003 19.8809 16.6003C19.7814 16.6003 19.686 16.6398 19.6157 16.7101C19.5454 16.7805 19.5059 16.8759 19.5059 16.9753V17.6173C19.5061 17.8513 19.5992 18.0756 19.7646 18.241C19.9301 18.4065 20.1544 18.4995 20.3884 18.4998H22.3384C22.5723 18.4995 22.7966 18.4065 22.9621 18.241C23.1275 18.0756 23.2206 17.8513 23.2209 17.6173V16.0603C23.2209 16.0109 23.2111 15.962 23.1921 15.9163C23.1732 15.8707 23.1454 15.8293 23.1103 15.7944C23.0753 15.7596 23.0337 15.732 22.988 15.7133C22.9423 15.6945 22.8933 15.685 22.8439 15.6853Z" fill="#12181D"/>
<path d="M3.96986 16.5998C3.8704 16.5998 3.77502 16.6393 3.70469 16.7096C3.63437 16.78 3.59486 16.8753 3.59486 16.9748V17.6168C3.59486 17.6519 3.58097 17.6855 3.55623 17.7103C3.53149 17.7352 3.49791 17.7492 3.46286 17.7493H1.51286C1.4778 17.7492 1.44423 17.7352 1.41949 17.7103C1.39475 17.6855 1.38086 17.6519 1.38086 17.6168V16.0603C1.38086 15.9608 1.34135 15.8655 1.27102 15.7951C1.2007 15.7248 1.10532 15.6853 1.00586 15.6853C0.906403 15.6853 0.81102 15.7248 0.740694 15.7951C0.670368 15.8655 0.630859 15.9608 0.630859 16.0603V17.6173C0.630991 17.8511 0.723805 18.0752 0.888953 18.2407C1.0541 18.4061 1.27811 18.4993 1.51186 18.4998H3.46186C3.69579 18.4995 3.92005 18.4065 4.08541 18.241C4.25078 18.0755 4.34373 17.8512 4.34386 17.6173V16.9753C4.34399 16.8759 4.30468 16.7806 4.23455 16.7102C4.16443 16.6398 4.06923 16.6001 3.96986 16.5998Z" fill="#12181D"/>
<path d="M23.1535 3.92739L21.9035 3.71139C21.7209 3.67769 21.5322 3.70722 21.3686 3.79511C21.205 3.883 21.0762 4.024 21.0035 4.19489L20.936 4.34489L20.05 2.25489C19.8497 1.77567 19.5301 1.35571 19.1215 1.03503C18.7129 0.714338 18.2291 0.5036 17.716 0.422886C15.8042 0.13265 13.8727 -0.00877458 11.939 -0.000113384C10.0053 -0.00860911 8.07381 0.132983 6.162 0.423387C5.64898 0.504052 5.16514 0.714715 4.75659 1.03531C4.34803 1.35591 4.02835 1.77576 3.828 2.25489L2.939 4.34689L2.876 4.19989C2.80384 4.02827 2.67539 3.88634 2.51181 3.79746C2.34822 3.70858 2.15925 3.67805 1.976 3.71089L0.726 3.92739C0.523146 3.96103 0.338822 4.06559 0.205865 4.22244C0.072908 4.3793 -4.59302e-05 4.57826 2.16947e-08 4.78389V5.02939C0.000187287 5.22732 0.0677112 5.41931 0.191473 5.57378C0.315234 5.72826 0.487869 5.83603 0.681 5.87939L1.868 6.14739L1.342 6.94989C0.886231 7.6433 0.643732 8.4551 0.6445 9.28489V13.5499C0.6445 15.1594 1.7655 16.1999 3.5015 16.1999H20.3765C22.1125 16.1999 23.2335 15.1599 23.2335 13.5499V9.28289C23.2343 8.4531 22.9918 7.6413 22.536 6.94789L22.01 6.14789L23.193 5.88089C23.3867 5.83805 23.56 5.73053 23.6844 5.57603C23.8089 5.42153 23.877 5.22926 23.8775 5.03089V4.78539C23.8781 4.57977 23.8056 4.38063 23.673 4.22348C23.5404 4.06634 23.3563 3.9614 23.1535 3.92739ZM0.8425 5.14539C0.816181 5.13947 0.792669 5.12475 0.77585 5.10365C0.759031 5.08256 0.749912 5.05636 0.75 5.02939V4.78389C0.749593 4.75556 0.759522 4.72806 0.777928 4.70652C0.796334 4.68499 0.821956 4.6709 0.85 4.66689L2.1055 4.44989C2.12311 4.44672 2.14127 4.45003 2.15663 4.45923C2.17198 4.46842 2.18348 4.48287 2.189 4.49989L2.4955 5.19289L2.3085 5.47789L0.8425 5.14539ZM22.4835 12.3849H2.345C2.24554 12.3849 2.15016 12.4244 2.07984 12.4947C2.00951 12.565 1.97 12.6604 1.97 12.7599C1.97 12.8593 2.00951 12.9547 2.07984 13.0251C2.15016 13.0954 2.24554 13.1349 2.345 13.1349H22.4835V13.5499C22.4835 14.7389 21.696 15.4499 20.3765 15.4499H3.5015C2.182 15.4499 1.3945 14.7394 1.3945 13.5499V9.28289C1.39398 8.59921 1.5937 7.93034 1.969 7.35889L3.151 5.55589H19.5115C19.611 5.55589 19.7063 5.51638 19.7767 5.44605C19.847 5.37573 19.8865 5.28034 19.8865 5.18089C19.8865 5.08143 19.847 4.98605 19.7767 4.91572C19.7063 4.8454 19.611 4.80589 19.5115 4.80589H3.5605L4.5185 2.54989C4.66928 2.18793 4.91032 1.87065 5.21861 1.62836C5.5269 1.38607 5.89216 1.22684 6.2795 1.16589C8.15235 0.880606 10.0446 0.74152 11.939 0.749887C13.8334 0.741023 15.7256 0.879608 17.5985 1.16439C17.986 1.22549 18.3514 1.38494 18.6597 1.6275C18.968 1.87007 19.2089 2.18764 19.3595 2.54989L20.4555 5.13339C20.464 5.15406 20.4746 5.17382 20.487 5.19239L21.909 7.36089C22.2843 7.93234 22.484 8.60121 22.4835 9.28489V12.3849ZM23.1275 5.02939C23.1275 5.0569 23.118 5.08357 23.1006 5.10489C23.0832 5.1262 23.059 5.14086 23.032 5.14639L21.571 5.47639L21.384 5.19139L21.6925 4.49139C21.6994 4.47623 21.7112 4.46379 21.7259 4.45601C21.7407 4.44823 21.7576 4.44555 21.774 4.44839L23.027 4.66539C23.055 4.6694 23.0807 4.68349 23.0991 4.70502C23.1175 4.72656 23.1274 4.75406 23.127 4.78239L23.1275 5.02939Z" fill="#12181D"/>
</svg>
