<svg width="18" height="18" viewBox="0 0 18 18" fill="none" xmlns="http://www.w3.org/2000/svg">
<path fill-rule="evenodd" clip-rule="evenodd" d="M5.29935 2.20801C3.08911 2.20801 1.29102 4.00859 1.29102 6.24134C1.29102 8.9501 2.54158 11.1204 4.11538 12.7329C5.6967 14.3531 7.56597 15.368 8.6846 15.7499L8.69071 15.7519L8.69069 15.752C8.74466 15.771 8.85653 15.7913 8.99935 15.7913C9.14217 15.7913 9.25403 15.771 9.308 15.752L9.31408 15.7498L9.31409 15.7499C10.4327 15.368 12.302 14.3531 13.8833 12.7329C15.4571 11.1204 16.7077 8.9501 16.7077 6.24134C16.7077 4.00859 14.9096 2.20801 12.6993 2.20801C11.3975 2.20801 10.2302 2.8406 9.50111 3.82231C9.38321 3.98108 9.19711 4.07467 8.99935 4.07467C8.80159 4.07467 8.61549 3.98108 8.49758 3.82231C7.76814 2.84009 6.60891 2.20801 5.29935 2.20801ZM0.0410156 6.24134C0.0410156 3.32409 2.39292 0.958008 5.29935 0.958008C6.74663 0.958008 8.05315 1.54633 8.99962 2.49527C9.94806 1.54604 11.2595 0.958008 12.6993 0.958008C15.6058 0.958008 17.9577 3.32409 17.9577 6.24134C17.9577 9.36591 16.5082 11.8331 14.7779 13.606C13.0563 15.3699 11.0189 16.4881 9.72073 16.9319C9.49214 17.0119 9.23042 17.0413 8.99935 17.0413C8.76828 17.0413 8.50655 17.0119 8.27797 16.9319C6.9798 16.4881 4.94242 15.3699 3.22082 13.606C1.49045 11.8331 0.0410156 9.36591 0.0410156 6.24134Z" fill="#025595"/>
</svg>
