<svg width="39" height="40" viewBox="0 0 39 40" fill="none" xmlns="http://www.w3.org/2000/svg">
<path d="M32.5539 1.99552H29.7802C28.5215 1.99701 27.5014 3.01704 27.4999 4.27578V6.70935L21.1405 0.662008C20.225 -0.220751 18.775 -0.220751 17.8595 0.662008L1.35099 16.3605C0.602544 17.0716 0.366267 18.1687 0.755608 19.1248C1.10596 20.0544 1.99716 20.6683 2.99055 20.6643H3.49725V37.6663C3.50975 38.9656 4.5716 40.0095 5.87089 39.9999H33.1274C34.4267 40.0095 35.4885 38.9656 35.501 37.6663V20.6643H36.0077C37.0011 20.6683 37.8923 20.0544 38.2427 19.1248C38.632 18.1686 38.3957 17.0716 37.6473 16.3605L34.8343 13.6849V4.27578C34.8327 3.01704 33.8126 1.99701 32.5539 1.99552ZM28.8335 4.27578C28.8342 3.75322 29.2576 3.32974 29.7802 3.32903H32.5539C33.0764 3.32974 33.4999 3.75322 33.5006 4.27578V12.4167L28.8335 7.97754V4.27578ZM37.0038 18.6308C36.8506 19.0494 36.4533 19.3285 36.0076 19.3309H34.8341C34.4659 19.3309 34.1674 19.6294 34.1674 19.9976V37.6663C34.1554 38.2292 33.6903 38.6765 33.1273 38.6664H5.87081C5.30777 38.6765 4.84272 38.2292 4.83069 37.6663V19.9976C4.83069 19.6294 4.53214 19.3309 4.16397 19.3309H2.99048C2.5448 19.3285 2.14757 19.0494 1.99434 18.6308C1.80581 18.1811 1.91543 17.6617 2.26969 17.3267L18.7803 1.62282C19.1791 1.22871 19.8209 1.22871 20.2197 1.62282L36.729 17.3246C37.0838 17.6603 37.1932 18.1807 37.0038 18.6308Z" fill="white"/>
</svg>
