<svg width="24" height="22" viewBox="0 0 24 22" fill="none" xmlns="http://www.w3.org/2000/svg">
<path fill-rule="evenodd" clip-rule="evenodd" d="M0 10.7082C0 16.6037 4.79714 21.4007 10.6926 21.4007C16.5881 21.4007 21.3851 16.6037 21.3851 10.7082C21.3851 10.3563 21.3686 10.0084 21.3356 9.66519C21.2966 9.26472 20.9419 8.973 20.5395 9.01002C20.139 9.04882 19.8455 9.40462 19.8843 9.80616C19.9124 10.1025 19.927 10.4038 19.927 10.7082C19.927 15.7997 15.7842 19.9426 10.6926 19.9426C5.60093 19.9426 1.45808 15.7997 1.45808 10.7082C1.45808 5.6165 5.60093 1.47364 10.6926 1.47364C12.4627 1.47364 14.1851 1.97806 15.6724 2.93368C16.0116 3.15136 16.4618 3.05329 16.6803 2.71404C16.8982 2.3748 16.7991 1.92378 16.4607 1.70592C14.7372 0.599721 12.7427 0.015564 10.6926 0.015564C4.79714 0.015564 0 4.8127 0 10.7082ZM11.3925 12.9241C11.5343 13.0669 11.7211 13.1379 11.9076 13.1379C12.0943 13.1379 12.2808 13.0669 12.4238 12.925L23.1164 2.23238C23.4012 1.9476 23.4012 1.4859 23.1164 1.20112C22.8316 0.91634 22.3699 0.91634 22.085 1.20112L11.9087 11.3776L8.04952 7.51846C7.76474 7.23368 7.30304 7.23368 7.01825 7.51846C6.73347 7.80324 6.73347 8.26494 7.01825 8.5499L11.3925 12.9241Z" fill="#025595"/>
</svg>
